<svg xmlns="http://www.w3.org/2000/svg" viewBox="0 0 1145.69 789.66"><defs><style>.cls-1{fill:none;stroke:#041c27;stroke-miterlimit:10;stroke-width:10px;}</style></defs><title>Asset 1</title><g id="Layer_2" data-name="Layer 2"><g id="Layer_1-2" data-name="Layer 1"><path d="M0,331.11H49.68a59.87,59.87,0,0,1,14.22,1.71,36.45,36.45,0,0,1,12.51,5.58,28.8,28.8,0,0,1,12.33,24.75q0,10.8-6.12,17.82a34,34,0,0,1-16,10.08v.36a33,33,0,0,1,11.07,3.33,29.33,29.33,0,0,1,8.73,6.66,30.77,30.77,0,0,1,5.67,9.36,31.19,31.19,0,0,1,2.07,11.43q0,10.44-4.14,17.37a32.86,32.86,0,0,1-10.89,11.16,46.6,46.6,0,0,1-15.48,6,87.57,87.57,0,0,1-17.73,1.8H0V331.11ZM22.68,383h20.7q11.34,0,17-4.41a14,14,0,0,0,5.67-11.61q0-8.28-5.85-12.33T41.4,350.55H22.68V383Zm0,56.16H43.56a85.76,85.76,0,0,0,9.27-.54,27.92,27.92,0,0,0,9.09-2.52,17.93,17.93,0,0,0,6.84-5.67q2.7-3.69,2.7-10,0-10.08-6.57-14t-20.43-4H22.68Z"/><path d="M157.86,331.11h19.62l54.9,127.44H206.46l-11.88-29.16H139.32L127.8,458.55H102.42ZM186.66,410,167,358.11l-20,51.84Z"/><path d="M256.14,351.63H217.08V331.11h100.8v20.52H278.82V458.55H256.14Z"/><path d="M333.36,331.11H356v50.76h59.58V331.11H438.3V458.55H415.62V402.39H356v56.16H333.36V331.11Z"/><path d="M459.9,395.37a73.8,73.8,0,0,1,5-27.81,62.4,62.4,0,0,1,13.95-21.33,61.15,61.15,0,0,1,21.24-13.59,74.48,74.48,0,0,1,27.09-4.77,75.71,75.71,0,0,1,27.36,4.41A59.8,59.8,0,0,1,576,345.69a61.93,61.93,0,0,1,14,21.24,73.11,73.11,0,0,1,5,27.72,70.75,70.75,0,0,1-5,27.18,62.33,62.33,0,0,1-14,21.06,64.14,64.14,0,0,1-21.42,13.77,75.78,75.78,0,0,1-27.36,5.13A74.48,74.48,0,0,1,500.13,457a60.73,60.73,0,0,1-35.19-34.47A70.56,70.56,0,0,1,459.9,395.37Zm23.76-1.44a54.79,54.79,0,0,0,3.15,18.9,44.39,44.39,0,0,0,8.91,14.94,41.46,41.46,0,0,0,13.77,9.9,43.21,43.21,0,0,0,17.91,3.6,43.84,43.84,0,0,0,18-3.6,41.22,41.22,0,0,0,13.86-9.9,44.39,44.39,0,0,0,8.91-14.94,54.79,54.79,0,0,0,3.15-18.9,49.7,49.7,0,0,0-3.15-17.82,44.15,44.15,0,0,0-8.91-14.49,40.76,40.76,0,0,0-13.86-9.72,44.81,44.81,0,0,0-18-3.51,44.17,44.17,0,0,0-17.91,3.51,41,41,0,0,0-13.77,9.72,44.15,44.15,0,0,0-8.91,14.49A49.48,49.48,0,0,0,483.66,393.93Z"/><path d="M642.77,351.63H603.71V331.11h100.8v20.52H665.45V458.55H642.77Z"/><path d="M713.15,395.37a73.8,73.8,0,0,1,5-27.81,62.4,62.4,0,0,1,13.95-21.33,61.15,61.15,0,0,1,21.24-13.59,74.48,74.48,0,0,1,27.09-4.77,75.71,75.71,0,0,1,27.36,4.41,59.8,59.8,0,0,1,21.42,13.41,61.93,61.93,0,0,1,14,21.24,73.11,73.11,0,0,1,5,27.72,70.75,70.75,0,0,1-5,27.18,62.33,62.33,0,0,1-14,21.06,64.14,64.14,0,0,1-21.42,13.77,75.78,75.78,0,0,1-27.36,5.13A74.48,74.48,0,0,1,753.38,457a60.73,60.73,0,0,1-35.19-34.47A70.75,70.75,0,0,1,713.15,395.37Zm23.76-1.44a54.79,54.79,0,0,0,3.15,18.9A44.39,44.39,0,0,0,749,427.77a41.46,41.46,0,0,0,13.77,9.9,43.21,43.21,0,0,0,17.91,3.6,43.84,43.84,0,0,0,18-3.6,41.22,41.22,0,0,0,13.86-9.9,44.39,44.39,0,0,0,8.91-14.94,54.79,54.79,0,0,0,3.15-18.9,49.7,49.7,0,0,0-3.15-17.82,44.15,44.15,0,0,0-8.91-14.49,40.76,40.76,0,0,0-13.86-9.72,44.81,44.81,0,0,0-18-3.51,44.17,44.17,0,0,0-17.91,3.51A41,41,0,0,0,749,361.62a44.15,44.15,0,0,0-8.91,14.49A49.7,49.7,0,0,0,736.91,393.93Z"/><path d="M869.93,331.11h42.84a85.85,85.85,0,0,1,17.73,1.8,43.67,43.67,0,0,1,15,6,30.94,30.94,0,0,1,10.35,11.34q3.87,7.11,3.87,17.73,0,12.06-4.14,19.44a29.63,29.63,0,0,1-11.16,11.43,46.62,46.62,0,0,1-16.29,5.49,126,126,0,0,1-19.35,1.44h-16.2v52.74H869.93V331.11Zm36.36,55.26q4.86,0,10.08-.36a31,31,0,0,0,9.63-2.16,17.09,17.09,0,0,0,7.2-5.4q2.79-3.6,2.79-10.08,0-5.94-2.52-9.45a16.69,16.69,0,0,0-6.48-5.4,27.34,27.34,0,0,0-8.82-2.43,84.81,84.81,0,0,0-9.36-.54h-16.2v35.82Z"/><path d="M979.37,331.11h22.68V458.55H979.37Z"/><path d="M1071.17,331.11h19.62l54.9,127.44h-25.92l-11.88-29.16h-55.26l-11.52,29.16h-25.38ZM1100,410l-19.62-51.84-20,51.84Z"/><circle class="cls-1" cx="877.39" cy="153.33" r="71.32" transform="translate(148.56 665.32) rotate(-45)"/><circle class="cls-1" cx="1015.73" cy="89.69" r="42.37"/><path class="cls-1" d="M829,101A388.33,388.33,0,0,0,572.84,5C410.37,5,271.13,104.39,212.57,245.68"/><path class="cls-1" d="M933.12,245.67q-7-16.95-15.57-33.08"/><path class="cls-1" d="M212.57,544c58.56,141.29,197.81,240.68,360.27,240.68S874.55,685.27,933.11,544"/></g></g></svg>